#!OML:ASF G:\JayActor3\Patient Classification 1\Patient 1\Session 5\male.ASF
:FULLY-SPECIFIED
:DEGREES
776
root -18.38 18.0515 -4.91018 111.193 91.5069 112.64
lowerback 2.80585 -0.815261 2.99415
upperback 0.45938 -0.997611 -0.40494
thorax -1.15992 -0.509192 -2.05636
lowerneck -5.68674 0.542683 2.31258
upperneck 14.0391 0.591095 0.348193
head 5.16256 0.497117 -0.230684
rclavicle 5.1653e-015 1.78906e-015
rhumerus -36.6545 -9.20143 -82.6362
rradius 23.9012
rwrist 5.18991
rhand -21.2409 -10.0213
rfingers 7.12502
rthumb 5.14175 -39.9389
lclavicle 5.1653e-015 1.78906e-015
lhumerus -37.762 12.5088 76.9878
lradius 19.4695
lwrist 13.5587
lhand -18.0329 11.634
lfingers 7.12502
lthumb 8.23862 41.4534
rfemur 0.270713 4.86678 21.5641
rtibia 53.2752
rfoot 23.7605 -17.2462
rtoes 10.2982
lfemur -4.94978 9.24646 -19.7006
ltibia 21.51
lfoot 8.22366 -5.42276
ltoes -28.2971
777
root -18.4819 18.052 -4.89934 113.73 91.7161 115.09
lowerback 2.69632 -0.760398 3.26468
upperback 0.436039 -0.91971 -0.374963
thorax -1.12174 -0.47104 -2.18169
lowerneck -5.68753 0.564549 2.31092
upperneck 13.9171 0.620648 0.331348
head 5.12527 0.507819 -0.234146
rclavicle 5.08143e-015 3.18055e-015
rhumerus -36.5541 -9.35098 -82.5781
rradius 23.8042
rwrist 5.30964
rhand -21.4712 -10.0201
rfingers 7.12502
rthumb 4.9194 -39.943
lclavicle 5.08143e-015 3.18055e-015
lhumerus -37.8186 12.3596 77.1685
lradius 19.7579
lwrist 14.0346
lhand -18.1894 11.7731
lfingers 7.12502
lthumb 8.08755 41.5983
rfemur 1.40805 5.38288 21.877
rtibia 51.0452
rfoot 24.6057 -17.7505
rtoes 10.6983
lfemur -5.51529 9.06593 -19.5437
ltibia 21.7089
lfoot 8.28382 -5.32919
ltoes -28.3166
778
root -18.5854 18.0504 -4.88791 115.528 91.94 116.8
lowerback 2.59835 -0.707901 3.55212
upperback 0.411349 -0.844542 -0.343476
thorax -1.09117 -0.434372 -2.31451
lowerneck -5.6737 0.583741 2.30593
upperneck 13.7842 0.64628 0.322596
head 5.08208 0.516868 -0.234866
rclavicle -9.62553e-015 7.65321e-015
rhumerus -36.4718 -9.47499 -82.5404
rradius 23.7446
rwrist 5.38483
rhand -21.7139 -10.0261
rfingers 7.12502
rthumb 4.68506 -39.9543
lclavicle -9.62553e-015 7.65321e-015
lhumerus -37.8702 12.2227 77.3437
lradius 20.0269
lwrist 14.4899
lhand -18.3429 11.9253
lfingers 7.12502
lthumb 7.93938 41.7562
rfemur 2.55382 5.9074 22.2219
rtibia 48.6441
rfoot 25.2631 -18.1064
rtoes 10.8199
lfemur -6.11059 8.90137 -19.3638
ltibia 21.9586
lfoot 8.30849 -5.24825
ltoes -28.3003
779
root -18.6906 18.0467 -4.87575 116.901 92.1727 118.084
lowerback 2.50952 -0.65782 3.84848
upperback 0.384888 -0.772444 -0.312421
thorax -1.06724 -0.399355 -2.4524
lowerneck -5.65354 0.601755 2.30091
upperneck 13.6493 0.66987 0.319016
head 5.03718 0.525284 -0.234136
rclavicle -8.7077e-015 -3.37934e-015
rhumerus -36.4063 -9.56777 -82.5262
rradius 23.7218
rwrist 5.42037
rhand -21.9541 -10.0429
rfingers 7.12502
rthumb 4.45311 -39.9761
lclavicle -8.7077e-015 -3.37934e-015
lhumerus -37.9168 12.0957 77.5123
lradius 20.2827
lwrist 14.9206
lhand -18.4519 12.0586
lfingers 7.12502
lthumb 7.83416 41.8934
rfemur 3.69531 6.43864 22.5876
rtibia 46.1029
rfoot 25.6699 -18.3978
rtoes 11.0875
lfemur -6.72896 8.76008 -19.1644
ltibia 22.2418
lfoot 8.30268 -5.19655
ltoes -28.2464
780
root -18.7976 18.0414 -4.86259 118.086 92.4192 119.171
lowerback 2.42946 -0.607886 4.15261
upperback 0.353534 -0.700286 -0.280615
thorax -1.05268 -0.364566 -2.59361
lowerneck -5.62726 0.620739 2.30479
upperneck 13.5165 0.694429 0.313393
head 4.99202 0.534605 -0.235473
rclavicle -9.11769e-015 1.2921e-015
rhumerus -36.3545 -9.62494 -82.5368
rradius 23.7298
rwrist 5.41731
rhand -22.1801 -10.0636
rfingers 7.12502
rthumb 4.23486 -40.0012
lclavicle -9.11769e-015 1.2921e-015
lhumerus -37.9648 11.9717 77.6779
lradius 20.5375
lwrist 15.3283
lhand -18.5221 12.1714
lfingers 7.12502
lthumb 7.76639 42.0088
rfemur 4.80483 6.98594 22.9712
rtibia 43.4886
rfoot 25.9584 -18.4573
rtoes 10.7753
lfemur -7.36479 8.63903 -18.9411
ltibia 22.5384
lfoot 8.27428 -5.17778
ltoes -28.1731
781
root -18.9065 18.0353 -4.84813 119.159 92.6773 120.139
lowerback 2.36065 -0.557996 4.45833
upperback 0.316293 -0.627844 -0.248649
thorax -1.04984 -0.329998 -2.73531
lowerneck -5.60744 0.64051 2.31181
upperneck 13.3991 0.719119 0.312559
head 4.95272 0.544741 -0.235789
rclavicle -2.65719e-015 -8.44835e-015
rhumerus -36.3124 -9.64108 -82.5764
rradius 23.7639
rwrist 5.37875
rhand -22.3846 -10.0921
rfingers 7.12502
rthumb 4.03737 -40.0336
lclavicle -2.65719e-015 -8.44835e-015
lhumerus -38.0117 11.8501 77.8363
lradius 20.7876
lwrist 15.7118
lhand -18.5321 12.2463
lfingers 7.12502
lthumb 7.75682 42.084
rfemur 5.85471 7.54086 23.3637
rtibia 40.9061
rfoot 26.1912 -18.1154
rtoes 9.73278
lfemur -8.01152 8.52185 -18.6962
ltibia 22.8295
lfoot 8.2342 -5.18686
ltoes -28.1061
